<svg width="263" height="216" viewBox="0 0 263 216" fill="none" xmlns="http://www.w3.org/2000/svg">
<path d="M66.976 215.88C104.992 215.88 132.64 187.656 132.64 153.096V63.24C132.64 25.8 104.992 0.45599 66.976 0.45599C28.384 0.45599 0.736001 28.68 0.736001 63.24V153.096C0.736001 190.536 28.384 215.88 66.976 215.88ZM66.976 185.928C47.968 185.928 34.144 171.528 34.144 153.096V63.24C34.144 44.232 47.968 30.408 66.976 30.408C85.408 30.408 99.232 44.232 99.232 63.24V153.096C99.232 171.528 85.408 185.928 66.976 185.928ZM229.282 213H262.69V3.33599H233.89L176.29 62.664L199.33 84.552L229.282 52.872V213Z" fill="white" fill-opacity="0.8"/>
</svg>
