<svg width="154" height="135" viewBox="0 0 154 135" fill="none" xmlns="http://www.w3.org/2000/svg">
<path d="M42.36 134.8C66.12 134.8 83.4 117.16 83.4 95.56V39.4C83.4 16 66.12 0.159994 42.36 0.159994C18.24 0.159994 0.960001 17.8 0.960001 39.4V95.56C0.960001 118.96 18.24 134.8 42.36 134.8ZM42.36 116.08C30.48 116.08 21.84 107.08 21.84 95.56V39.4C21.84 27.52 30.48 18.88 42.36 18.88C53.88 18.88 62.52 27.52 62.52 39.4V95.56C62.52 107.08 53.88 116.08 42.36 116.08ZM133.001 133H153.881V1.95999H135.881L99.8813 39.04L114.281 52.72L133.001 32.92V133Z" fill="white" fill-opacity="0.8"/>
</svg>
