<svg width="296" height="216" viewBox="0 0 296 216" fill="none" xmlns="http://www.w3.org/2000/svg">
<path d="M66.976 215.88C104.992 215.88 132.64 187.656 132.64 153.096V63.24C132.64 25.8 104.992 0.45599 66.976 0.45599C28.384 0.45599 0.736001 28.68 0.736001 63.24V153.096C0.736001 190.536 28.384 215.88 66.976 215.88ZM66.976 185.928C47.968 185.928 34.144 171.528 34.144 153.096V63.24C34.144 44.232 47.968 30.408 66.976 30.408C85.408 30.408 99.232 44.232 99.232 63.24V153.096C99.232 171.528 85.408 185.928 66.976 185.928ZM169.954 213H295.522V183.048H212.002L278.242 104.136C290.338 89.736 295.522 75.336 295.522 61.512C295.522 24.648 269.026 0.45599 231.586 0.45599C194.146 0.45599 167.65 26.952 167.65 63.24C167.65 79.944 175.714 96.072 190.69 107.016L211.426 82.824C205.666 77.64 201.058 71.304 201.058 63.24C201.058 43.08 213.73 30.408 231.586 30.408C249.442 30.408 262.69 43.08 262.69 61.512C262.69 69 259.81 76.488 252.898 85.128L169.954 185.928V213Z" fill="white" fill-opacity="0.8"/>
</svg>
