<svg width="186" height="135" viewBox="0 0 186 135" fill="none" xmlns="http://www.w3.org/2000/svg">
<path d="M42.36 134.8C66.12 134.8 83.4 117.16 83.4 95.56V39.4C83.4 16 66.12 0.159994 42.36 0.159994C18.24 0.159994 0.960001 17.8 0.960001 39.4V95.56C0.960001 118.96 18.24 134.8 42.36 134.8ZM42.36 116.08C30.48 116.08 21.84 107.08 21.84 95.56V39.4C21.84 27.52 30.48 18.88 42.36 18.88C53.88 18.88 62.52 27.52 62.52 39.4V95.56C62.52 107.08 53.88 116.08 42.36 116.08ZM106.721 133H185.201V114.28H133.001L174.401 64.96C181.961 55.96 185.201 46.96 185.201 38.32C185.201 15.28 168.641 0.159994 145.241 0.159994C121.841 0.159994 105.281 16.72 105.281 39.4C105.281 49.84 110.321 59.92 119.681 66.76L132.641 51.64C129.041 48.4 126.161 44.44 126.161 39.4C126.161 26.8 134.081 18.88 145.241 18.88C156.401 18.88 164.681 26.8 164.681 38.32C164.681 43 162.881 47.68 158.561 53.08L106.721 116.08V133Z" fill="white" fill-opacity="0.8"/>
</svg>
