<svg width="300" height="216" viewBox="0 0 300 216" fill="none" xmlns="http://www.w3.org/2000/svg">
<path d="M66.976 215.88C104.992 215.88 132.64 187.656 132.64 153.096V63.24C132.64 25.8 104.992 0.45599 66.976 0.45599C28.384 0.45599 0.736001 28.68 0.736001 63.24V153.096C0.736001 190.536 28.384 215.88 66.976 215.88ZM66.976 185.928C47.968 185.928 34.144 171.528 34.144 153.096V63.24C34.144 44.232 47.968 30.408 66.976 30.408C85.408 30.408 99.232 44.232 99.232 63.24V153.096C99.232 171.528 85.408 185.928 66.976 185.928ZM233.314 215.88C271.906 215.88 299.554 188.232 299.554 153.672C299.554 133.512 290.338 117.384 276.514 106.44C289.186 94.92 297.25 78.792 297.25 61.512C297.25 24.648 270.754 0.45599 233.314 0.45599C195.874 0.45599 169.378 26.952 169.378 63.24H202.786C202.786 43.08 215.458 30.408 233.314 30.408C251.17 30.408 264.418 43.08 264.418 61.512C264.418 79.368 251.17 93.192 233.314 93.192H218.338V123.144H233.314C251.746 123.144 265.57 135.24 265.57 153.672C265.57 172.68 252.322 185.928 233.314 185.928C214.882 185.928 201.058 172.68 201.058 153.096H167.65C167.65 191.112 195.298 215.88 233.314 215.88Z" fill="white" fill-opacity="0.8"/>
</svg>
