<svg width="188" height="135" viewBox="0 0 188 135" fill="none" xmlns="http://www.w3.org/2000/svg">
<path d="M42.36 134.8C66.12 134.8 83.4 117.16 83.4 95.56V39.4C83.4 16 66.12 0.159994 42.36 0.159994C18.24 0.159994 0.960001 17.8 0.960001 39.4V95.56C0.960001 118.96 18.24 134.8 42.36 134.8ZM42.36 116.08C30.48 116.08 21.84 107.08 21.84 95.56V39.4C21.84 27.52 30.48 18.88 42.36 18.88C53.88 18.88 62.52 27.52 62.52 39.4V95.56C62.52 107.08 53.88 116.08 42.36 116.08ZM146.321 134.8C170.441 134.8 187.721 117.52 187.721 95.92C187.721 83.32 181.961 73.24 173.321 66.4C181.241 59.2 186.281 49.12 186.281 38.32C186.281 15.28 169.721 0.159994 146.321 0.159994C122.921 0.159994 106.361 16.72 106.361 39.4H127.241C127.241 26.8 135.161 18.88 146.321 18.88C157.481 18.88 165.761 26.8 165.761 38.32C165.761 49.48 157.481 58.12 146.321 58.12H136.961V76.84H146.321C157.841 76.84 166.481 84.4 166.481 95.92C166.481 107.8 158.201 116.08 146.321 116.08C134.801 116.08 126.161 107.8 126.161 95.56H105.281C105.281 119.32 122.561 134.8 146.321 134.8Z" fill="white" fill-opacity="0.8"/>
</svg>
