<svg width="167" height="92" viewBox="0 0 167 92" fill="none" xmlns="http://www.w3.org/2000/svg">
<path d="M166.484 45C166.484 50.9095 164.344 56.7611 160.186 62.2208C156.027 67.6804 149.933 72.6412 142.249 76.8198C134.566 80.9984 125.445 84.3131 115.406 86.5746C105.367 88.836 94.6078 90 83.7419 90C72.8761 90 62.1167 88.836 52.078 86.5746C42.0392 84.3131 32.9178 80.9984 25.2345 76.8198C17.5512 72.6412 11.4565 67.6804 7.29835 62.2208C3.14018 56.7611 0.999999 50.9095 1 45L83.7419 45H166.484Z" fill="#333333"/>
<path d="M3.874 20.6523H5.382V12.5403H8.866V11.1883H0.39V12.5403H3.874V20.6523ZM10.1649 20.6523H11.6729V16.5963H18.3549V15.2443H11.6729V12.5403H18.4589V11.1883H10.1389V16.5963L10.1649 20.6523Z" fill="#333333"/>
<path d="M35.0603 39.7911C43.2203 39.7911 50.1003 32.9911 50.1003 24.8311H35.0603V28.9911H44.5803C43.0603 32.8311 39.4603 35.5511 35.0603 35.5511C29.1403 35.5511 24.7403 30.7511 24.7403 24.8311C24.7403 18.9111 29.1403 14.1111 35.0603 14.1111C38.1003 14.1111 40.6603 15.3111 42.5003 17.3111L45.7003 14.1111C43.0603 11.5511 39.4603 9.87111 35.0603 9.87111C26.8203 9.87111 19.9403 16.5911 19.9403 24.8311C19.9403 33.7111 26.1803 39.7911 35.0603 39.7911ZM61.3053 39.7911C63.3853 39.7911 65.2253 39.0711 66.2653 37.9511V39.3911H70.6653V31.0711C70.6653 25.8711 66.9053 22.3511 61.7053 22.3511C56.9053 22.3511 52.7453 26.2711 52.7453 31.0711C52.7453 36.2711 56.2653 39.7911 61.3053 39.7911ZM61.7053 35.6311C59.1453 35.6311 57.2253 33.6311 57.2253 31.0711C57.2253 28.4311 59.1453 26.5111 61.7053 26.5111C64.3453 26.5111 66.1853 28.4311 66.1853 31.0711C66.1853 33.6311 64.3453 35.6311 61.7053 35.6311ZM74.9907 39.3911H79.4707V28.9911C79.4707 27.7111 80.3507 26.9111 81.5507 26.9111H82.8307V22.7511H81.2307C77.6307 22.7511 74.9907 25.3111 74.9907 28.9911V39.3911ZM94.6741 39.7911C99.4741 39.7911 103.634 35.8711 103.634 31.0711V10.2711H99.1541V23.7911C97.7141 22.7511 96.1141 22.3511 94.4341 22.3511C89.7141 22.3511 85.7141 26.2711 85.7141 31.0711C85.7141 36.2711 89.4741 39.7911 94.6741 39.7911ZM94.6741 35.6311C92.1141 35.6311 90.1941 33.6311 90.1941 31.0711C90.1941 28.4311 92.1141 26.5111 94.6741 26.5111C97.3141 26.5111 99.1541 28.4311 99.1541 31.0711C99.1541 33.6311 97.3141 35.6311 94.6741 35.6311ZM116.588 39.7911C118.988 39.7911 121.148 38.8311 122.748 37.2311L120.028 34.4311C118.828 35.5511 118.028 35.9511 116.588 35.9511C114.348 35.9511 112.588 34.5911 112.028 32.5911H125.548V31.0711C125.228 25.6311 121.788 22.3511 116.588 22.3511C111.788 22.3511 107.628 26.2711 107.628 31.0711C107.628 36.2711 111.388 39.7911 116.588 39.7911ZM112.108 29.1511C112.748 27.3111 114.348 25.9511 116.588 25.9511C118.908 25.9511 120.508 27.2311 121.148 29.1511H112.108ZM129.131 39.3911H133.611V31.0711C133.611 28.4311 135.531 26.5111 138.091 26.5111C140.731 26.5111 142.571 28.4311 142.571 31.0711V39.3911H147.051V31.0711C147.051 25.8711 143.371 22.3511 138.171 22.3511C133.611 22.3511 129.131 25.8711 129.131 31.0711V39.3911Z" fill="#333333"/>
<path d="M33.6288 79.3042H50.7488C55.7088 79.3042 59.0688 75.3042 59.0688 70.9842C59.0688 66.1842 55.7088 62.6642 50.7488 62.6642H41.9488C39.4688 62.6642 37.7888 60.9842 37.7888 58.5042C37.7888 56.0242 39.4688 54.3442 41.9488 54.3442H56.5888V50.1842H41.4688C36.5088 50.1842 33.1488 54.1042 33.1488 58.5042C33.1488 63.3042 36.5088 66.8242 41.4688 66.8242H50.2688C52.7488 66.8242 54.4288 68.5042 54.4288 70.9842C54.4288 73.4642 52.7488 75.1442 50.2688 75.1442H33.6288V79.3042ZM70.7342 79.7042C72.8142 79.7042 74.6542 78.9842 75.6942 77.8642V79.3042H80.0942V70.9842C80.0942 65.7842 76.3342 62.2642 71.1342 62.2642C66.3342 62.2642 62.1742 66.1842 62.1742 70.9842C62.1742 76.1842 65.6942 79.7042 70.7342 79.7042ZM71.1342 75.5442C68.5742 75.5442 66.6542 73.5442 66.6542 70.9842C66.6542 68.3442 68.5742 66.4242 71.1342 66.4242C73.7742 66.4242 75.6142 68.3442 75.6142 70.9842C75.6142 73.5442 73.7742 75.5442 71.1342 75.5442ZM85.3607 79.3042H89.8407V50.1842H85.3607V79.3042ZM102.883 79.7042C104.963 79.7042 106.803 78.9842 107.843 77.8642V79.3042H112.243V70.9842C112.243 65.7842 108.483 62.2642 103.283 62.2642C98.4826 62.2642 94.3226 66.1842 94.3226 70.9842C94.3226 76.1842 97.8426 79.7042 102.883 79.7042ZM103.283 75.5442C100.723 75.5442 98.8026 73.5442 98.8026 70.9842C98.8026 68.3442 100.723 66.4242 103.283 66.4242C105.923 66.4242 107.763 68.3442 107.763 70.9842C107.763 73.5442 105.923 75.5442 103.283 75.5442ZM124.728 79.7042C129.528 79.7042 133.688 75.7842 133.688 70.9842V50.1842H129.208V63.7042C127.768 62.6642 126.168 62.2642 124.488 62.2642C119.768 62.2642 115.768 66.1842 115.768 70.9842C115.768 76.1842 119.528 79.7042 124.728 79.7042ZM124.728 75.5442C122.168 75.5442 120.248 73.5442 120.248 70.9842C120.248 68.3442 122.168 66.4242 124.728 66.4242C127.368 66.4242 129.208 68.3442 129.208 70.9842C129.208 73.5442 127.368 75.5442 124.728 75.5442Z" fill="#159741"/>
</svg>
