<svg width="368" height="167" viewBox="0 0 368 167" fill="none" xmlns="http://www.w3.org/2000/svg">
<path d="M42.466 83.1C64.906 83.1 83.826 64.4 83.826 41.96H42.466V53.4H68.646C64.466 63.96 54.566 71.44 42.466 71.44C26.186 71.44 14.086 58.24 14.086 41.96C14.086 25.68 26.186 12.48 42.466 12.48C50.826 12.48 57.866 15.78 62.926 21.28L71.726 12.48C64.466 5.44 54.566 0.819996 42.466 0.819996C19.806 0.819996 0.886016 19.3 0.886016 41.96C0.886016 66.38 18.046 83.1 42.466 83.1ZM117.94 83.1C123.66 83.1 128.72 81.12 131.58 78.04V82H143.68V59.12C143.68 44.82 133.34 35.14 119.04 35.14C105.84 35.14 94.3998 45.92 94.3998 59.12C94.3998 73.42 104.08 83.1 117.94 83.1ZM119.04 71.66C112 71.66 106.72 66.16 106.72 59.12C106.72 51.86 112 46.58 119.04 46.58C126.3 46.58 131.36 51.86 131.36 59.12C131.36 66.16 126.3 71.66 119.04 71.66ZM158.874 82H171.194V53.4C171.194 49.88 173.614 47.68 176.914 47.68H180.434V36.24H176.034C166.134 36.24 158.874 43.28 158.874 53.4V82ZM216.304 83.1C229.504 83.1 240.944 72.32 240.944 59.12V1.92H228.624V39.1C224.664 36.24 220.264 35.14 215.644 35.14C202.664 35.14 191.664 45.92 191.664 59.12C191.664 73.42 202.004 83.1 216.304 83.1ZM216.304 71.66C209.264 71.66 203.984 66.16 203.984 59.12C203.984 51.86 209.264 46.58 216.304 46.58C223.564 46.58 228.624 51.86 228.624 59.12C228.624 66.16 223.564 71.66 216.304 71.66ZM279.868 83.1C286.468 83.1 292.408 80.46 296.808 76.06L289.328 68.36C286.028 71.44 283.828 72.54 279.868 72.54C273.708 72.54 268.868 68.8 267.328 63.3H304.508V59.12C303.628 44.16 294.168 35.14 279.868 35.14C266.668 35.14 255.228 45.92 255.228 59.12C255.228 73.42 265.568 83.1 279.868 83.1ZM267.548 53.84C269.308 48.78 273.708 45.04 279.868 45.04C286.248 45.04 290.648 48.56 292.408 53.84H267.548ZM317.661 82H329.981V59.12C329.981 51.86 335.261 46.58 342.301 46.58C349.561 46.58 354.621 51.86 354.621 59.12V82H366.941V59.12C366.941 44.82 356.821 35.14 342.521 35.14C329.981 35.14 317.661 44.82 317.661 59.12V82ZM79.4939 170H126.574C140.214 170 149.454 159 149.454 147.12C149.454 133.92 140.214 124.24 126.574 124.24H102.374C95.5539 124.24 90.9339 119.62 90.9339 112.8C90.9339 105.98 95.5539 101.36 102.374 101.36H142.634V89.92H101.054C87.4139 89.92 78.1739 100.7 78.1739 112.8C78.1739 126 87.4139 135.68 101.054 135.68H125.254C132.074 135.68 136.694 140.3 136.694 147.12C136.694 153.94 132.074 158.56 125.254 158.56H79.4939V170ZM184.834 171.1C190.554 171.1 195.614 169.12 198.474 166.04V170H210.574V147.12C210.574 132.82 200.234 123.14 185.934 123.14C172.734 123.14 161.294 133.92 161.294 147.12C161.294 161.42 170.974 171.1 184.834 171.1ZM185.934 159.66C178.894 159.66 173.614 154.16 173.614 147.12C173.614 139.86 178.894 134.58 185.934 134.58C193.194 134.58 198.254 139.86 198.254 147.12C198.254 154.16 193.194 159.66 185.934 159.66ZM228.357 170H240.677V89.92H228.357V170ZM279.842 171.1C285.562 171.1 290.622 169.12 293.482 166.04V170H305.582V147.12C305.582 132.82 295.242 123.14 280.942 123.14C267.742 123.14 256.302 133.92 256.302 147.12C256.302 161.42 265.982 171.1 279.842 171.1ZM280.942 159.66C273.902 159.66 268.622 154.16 268.622 147.12C268.622 139.86 273.902 134.58 280.942 134.58C288.202 134.58 293.262 139.86 293.262 147.12C293.262 154.16 288.202 159.66 280.942 159.66ZM343.216 171.1C356.416 171.1 367.856 160.32 367.856 147.12V89.92H355.536V127.1C351.576 124.24 347.176 123.14 342.556 123.14C329.576 123.14 318.576 133.92 318.576 147.12C318.576 161.42 328.916 171.1 343.216 171.1ZM343.216 159.66C336.176 159.66 330.896 154.16 330.896 147.12C330.896 139.86 336.176 134.58 343.216 134.58C350.476 134.58 355.536 139.86 355.536 147.12C355.536 154.16 350.476 159.66 343.216 159.66Z" fill="#676767" fill-opacity="0.3"/>
</svg>
