<svg width="1440" height="207" viewBox="0 0 1440 207" fill="none" xmlns="http://www.w3.org/2000/svg">
<path d="M77.4234 209.8C134.543 209.8 182.703 162.2 182.703 105.08H77.4234V134.2H144.063C133.423 161.08 108.223 180.12 77.4234 180.12C35.9834 180.12 5.18344 146.52 5.18344 105.08C5.18344 63.64 35.9834 30.04 77.4234 30.04C98.7034 30.04 116.623 38.44 129.503 52.44L151.903 30.04C133.423 12.12 108.223 0.35999 77.4234 0.35999C19.7434 0.35999 -28.4166 47.4 -28.4166 105.08C-28.4166 167.24 15.2634 209.8 77.4234 209.8ZM261.138 209.8C275.698 209.8 288.578 204.76 295.858 196.92V207H326.658V148.76C326.658 112.36 300.338 87.72 263.938 87.72C230.338 87.72 201.218 115.16 201.218 148.76C201.218 185.16 225.858 209.8 261.138 209.8ZM263.938 180.68C246.018 180.68 232.578 166.68 232.578 148.76C232.578 130.28 246.018 116.84 263.938 116.84C282.418 116.84 295.298 130.28 295.298 148.76C295.298 166.68 282.418 180.68 263.938 180.68ZM356.936 207H388.296V134.2C388.296 125.24 394.456 119.64 402.856 119.64H411.816V90.52H400.616C375.416 90.52 356.936 108.44 356.936 134.2V207ZM494.72 209.8C528.32 209.8 557.44 182.36 557.44 148.76V3.15999H526.08V97.8C516 90.52 504.8 87.72 493.04 87.72C460 87.72 432 115.16 432 148.76C432 185.16 458.32 209.8 494.72 209.8ZM494.72 180.68C476.8 180.68 463.36 166.68 463.36 148.76C463.36 130.28 476.8 116.84 494.72 116.84C513.2 116.84 526.08 130.28 526.08 148.76C526.08 166.68 513.2 180.68 494.72 180.68ZM648.118 209.8C664.918 209.8 680.038 203.08 691.238 191.88L672.198 172.28C663.798 180.12 658.198 182.92 648.118 182.92C632.438 182.92 620.118 173.4 616.198 159.4H710.838V148.76C708.598 110.68 684.518 87.72 648.118 87.72C614.518 87.72 585.398 115.16 585.398 148.76C585.398 185.16 611.718 209.8 648.118 209.8ZM616.758 135.32C621.238 122.44 632.438 112.92 648.118 112.92C664.358 112.92 675.558 121.88 680.038 135.32H616.758ZM735.92 207H767.28V148.76C767.28 130.28 780.72 116.84 798.64 116.84C817.12 116.84 830 130.28 830 148.76V207H861.36V148.76C861.36 112.36 835.6 87.72 799.2 87.72C767.28 87.72 735.92 112.36 735.92 148.76V207ZM972.925 207L1092.76 207C1127.48 207 1151 179 1151 148.76C1151 115.16 1127.48 90.52 1092.76 90.52H1031.16C1013.8 90.52 1002.04 78.76 1002.04 61.4C1002.04 44.04 1013.8 32.28 1031.16 32.28H1133.64V3.15999L1027.8 3.15999C993.085 3.15999 969.565 30.6 969.565 61.4C969.565 95 993.085 119.64 1027.8 119.64H1089.4C1106.76 119.64 1118.52 131.4 1118.52 148.76C1118.52 166.12 1106.76 177.88 1089.4 177.88L972.925 177.88V207ZM1232.66 209.8C1247.22 209.8 1260.1 204.76 1267.38 196.92V207H1298.18V148.76C1298.18 112.36 1271.86 87.72 1235.46 87.72C1201.86 87.72 1172.74 115.16 1172.74 148.76C1172.74 185.16 1197.38 209.8 1232.66 209.8ZM1235.46 180.68C1217.54 180.68 1204.1 166.68 1204.1 148.76C1204.1 130.28 1217.54 116.84 1235.46 116.84C1253.94 116.84 1266.82 130.28 1266.82 148.76C1266.82 166.68 1253.94 180.68 1235.46 180.68ZM1335.05 207H1366.41V3.15999L1335.05 3.15999V207ZM1457.7 209.8C1472.26 209.8 1485.14 204.76 1492.42 196.92V207H1523.22V148.76C1523.22 112.36 1496.9 87.72 1460.5 87.72C1426.9 87.72 1397.78 115.16 1397.78 148.76C1397.78 185.16 1422.42 209.8 1457.7 209.8ZM1460.5 180.68C1442.58 180.68 1429.14 166.68 1429.14 148.76C1429.14 130.28 1442.58 116.84 1460.5 116.84C1478.98 116.84 1491.86 130.28 1491.86 148.76C1491.86 166.68 1478.98 180.68 1460.5 180.68ZM1610.62 209.8C1644.22 209.8 1673.34 182.36 1673.34 148.76V3.15999H1641.98V97.8C1631.9 90.52 1620.7 87.72 1608.94 87.72C1575.9 87.72 1547.9 115.16 1547.9 148.76C1547.9 185.16 1574.22 209.8 1610.62 209.8ZM1610.62 180.68C1592.7 180.68 1579.26 166.68 1579.26 148.76C1579.26 130.28 1592.7 116.84 1610.62 116.84C1629.1 116.84 1641.98 130.28 1641.98 148.76C1641.98 166.68 1629.1 180.68 1610.62 180.68Z" fill="#676767" fill-opacity="0.3"/>
</svg>
