<svg width="118" height="63" viewBox="0 0 118 63" fill="none" xmlns="http://www.w3.org/2000/svg">
<path d="M117.871 31.5C117.871 35.6366 116.372 39.7328 113.462 43.5545C110.551 47.3763 106.285 50.8488 100.906 53.7739C95.5281 56.6989 89.1431 59.0192 82.116 60.6022C75.0889 62.1852 67.5573 63 59.9512 63C52.3451 63 44.8135 62.1852 37.7864 60.6022C30.7593 59.0192 24.3744 56.6989 18.996 53.7739C13.6177 50.8488 9.35143 47.3763 6.44071 43.5545C3.52999 39.7328 2.03186 35.6366 2.03186 31.5L59.9512 31.5H117.871Z" fill="white"/>
<path d="M3.05001 14.0806H4.23726V7.69398H6.98022V6.62954H0.307048V7.69398H3.05001V14.0806ZM8.00283 14.0806H9.19008V10.8873H14.4508V9.82284H9.19008V7.69398H14.5327V6.62954H7.98236V10.8873L8.00283 14.0806Z" fill="white"/>
<path d="M25.5834 28.3671C31.4296 28.3671 36.3587 23.4953 36.3587 17.6491H25.5834V20.6295H32.4039C31.3149 23.3807 28.7357 25.3294 25.5834 25.3294C21.342 25.3294 18.1897 21.8905 18.1897 17.6491C18.1897 13.4078 21.342 9.96885 25.5834 9.96885C27.7614 9.96885 29.5955 10.8286 30.9137 12.2615L33.2063 9.96885C31.3149 8.13475 28.7357 6.93112 25.5834 6.93112C19.6799 6.93112 14.7507 11.7456 14.7507 17.6491C14.7507 24.0112 19.2213 28.3671 25.5834 28.3671ZM44.3865 28.3671C45.8767 28.3671 47.1949 27.8513 47.94 27.0489V28.0806H51.0924V22.1197C51.0924 18.3942 48.3985 15.8724 44.673 15.8724C41.2341 15.8724 38.2537 18.6808 38.2537 22.1197C38.2537 25.8453 40.7756 28.3671 44.3865 28.3671ZM44.673 25.3867C42.8389 25.3867 41.4634 23.9538 41.4634 22.1197C41.4634 20.2283 42.8389 18.8528 44.673 18.8528C46.5644 18.8528 47.8827 20.2283 47.8827 22.1197C47.8827 23.9538 46.5644 25.3867 44.673 25.3867ZM54.1912 28.0806H57.4009V20.6295C57.4009 19.7125 58.0314 19.1393 58.8911 19.1393H59.8081V16.1589H58.6618C56.0826 16.1589 54.1912 17.993 54.1912 20.6295V28.0806ZM68.2933 28.3671C71.7322 28.3671 74.7127 25.5587 74.7127 22.1197V7.2177H71.503V16.904C70.4713 16.1589 69.325 15.8724 68.1214 15.8724C64.7398 15.8724 61.874 18.6808 61.874 22.1197C61.874 25.8453 64.5678 28.3671 68.2933 28.3671ZM68.2933 25.3867C66.4592 25.3867 65.0836 23.9538 65.0836 22.1197C65.0836 20.2283 66.4592 18.8528 68.2933 18.8528C70.1847 18.8528 71.503 20.2283 71.503 22.1197C71.503 23.9538 70.1847 25.3867 68.2933 25.3867ZM83.9935 28.3671C85.713 28.3671 87.2605 27.6794 88.4068 26.533L86.4581 24.527C85.5984 25.3294 85.0252 25.616 83.9935 25.616C82.3887 25.616 81.1277 24.6416 80.7265 23.2087H90.4129V22.1197C90.1836 18.2223 87.719 15.8724 83.9935 15.8724C80.5546 15.8724 77.5742 18.6808 77.5742 22.1197C77.5742 25.8453 80.268 28.3671 83.9935 28.3671ZM80.7839 20.7442C81.2424 19.4259 82.3887 18.4516 83.9935 18.4516C85.6557 18.4516 86.802 19.3686 87.2605 20.7442H80.7839ZM92.98 28.0806H96.1897V22.1197C96.1897 20.2283 97.5652 18.8528 99.3993 18.8528C101.291 18.8528 102.609 20.2283 102.609 22.1197V28.0806H105.819V22.1197C105.819 18.3942 103.182 15.8724 99.4566 15.8724C96.1897 15.8724 92.98 18.3942 92.98 22.1197V28.0806Z" fill="white"/>
<path d="M24.0821 55.5161H36.3476C39.9012 55.5161 42.3084 52.6503 42.3084 49.5553C42.3084 46.1164 39.9012 43.5945 36.3476 43.5945H30.0429C28.2661 43.5945 27.0625 42.3908 27.0625 40.6141C27.0625 38.8373 28.2661 37.6337 30.0429 37.6337H40.5317V34.6532H29.699C26.1454 34.6532 23.7382 37.4617 23.7382 40.6141C23.7382 44.053 26.1454 46.5749 29.699 46.5749H36.0037C37.7805 46.5749 38.9841 47.7785 38.9841 49.5553C38.9841 51.3321 37.7805 52.5357 36.0037 52.5357H24.0821V55.5161ZM50.666 55.8027C52.1562 55.8027 53.4744 55.2869 54.2195 54.4844V55.5161H57.3719V49.5553C57.3719 45.8298 54.6781 43.3079 50.9526 43.3079C47.5136 43.3079 44.5332 46.1164 44.5332 49.5553C44.5332 53.2808 47.0551 55.8027 50.666 55.8027ZM50.9526 52.8223C49.1185 52.8223 47.7429 51.3894 47.7429 49.5553C47.7429 47.6639 49.1185 46.2883 50.9526 46.2883C52.844 46.2883 54.1622 47.6639 54.1622 49.5553C54.1622 51.3894 52.844 52.8223 50.9526 52.8223ZM61.1451 55.5161H64.3548V34.6532H61.1451V55.5161ZM73.6986 55.8027C75.1888 55.8027 76.507 55.2869 77.2521 54.4844V55.5161H80.4045V49.5553C80.4045 45.8298 77.7106 43.3079 73.9851 43.3079C70.5462 43.3079 67.5658 46.1164 67.5658 49.5553C67.5658 53.2808 70.0877 55.8027 73.6986 55.8027ZM73.9851 52.8223C72.151 52.8223 70.7755 51.3894 70.7755 49.5553C70.7755 47.6639 72.151 46.2883 73.9851 46.2883C75.8765 46.2883 77.1948 47.6639 77.1948 49.5553C77.1948 51.3894 75.8765 52.8223 73.9851 52.8223ZM89.3495 55.8027C92.7884 55.8027 95.7689 52.9942 95.7689 49.5553V34.6532H92.5592V44.3396C91.5275 43.5945 90.3812 43.3079 89.1776 43.3079C85.7959 43.3079 82.9302 46.1164 82.9302 49.5553C82.9302 53.2808 85.624 55.8027 89.3495 55.8027ZM89.3495 52.8223C87.5154 52.8223 86.1398 51.3894 86.1398 49.5553C86.1398 47.6639 87.5154 46.2883 89.3495 46.2883C91.2409 46.2883 92.5592 47.6639 92.5592 49.5553C92.5592 51.3894 91.2409 52.8223 89.3495 52.8223Z" fill="#159741"/>
</svg>
