<svg width="120" height="120" viewBox="0 0 120 120" fill="none" xmlns="http://www.w3.org/2000/svg">
<circle cx="60" cy="60" r="59" fill="white" stroke="#333333" stroke-width="2"/>
<path d="M28.088 88H29.976V83.008H34.936C36.952 83.008 38.296 81.504 38.296 79.68C38.296 77.856 36.952 76.352 34.936 76.352H28.088V88ZM29.976 81.344V78.016H34.744C35.736 78.016 36.408 78.688 36.408 79.68C36.408 80.672 35.736 81.344 34.744 81.344H29.976ZM41.7017 88.16C42.5337 88.16 43.2697 87.872 43.6858 87.424V88H45.4457V84.672C45.4457 82.592 43.9418 81.184 41.8617 81.184C39.9417 81.184 38.2777 82.752 38.2777 84.672C38.2777 86.752 39.6857 88.16 41.7017 88.16ZM41.8617 86.496C40.8377 86.496 40.0697 85.696 40.0697 84.672C40.0697 83.616 40.8377 82.848 41.8617 82.848C42.9177 82.848 43.6537 83.616 43.6537 84.672C43.6537 85.696 42.9177 86.496 41.8617 86.496ZM51.1119 91.488C53.0319 91.488 54.6959 90.08 54.6959 88V84.672C54.6959 82.592 53.1919 81.184 51.1119 81.184C49.1919 81.184 47.5279 82.752 47.5279 84.672C47.5279 86.752 48.9359 88.16 50.9519 88.16C51.7839 88.16 52.5519 87.872 52.9359 87.424V88C52.9359 89.088 52.1999 89.92 51.1119 89.92C50.0239 89.92 49.2879 89.152 49.2879 88.064H47.5919C47.5919 90.176 48.9999 91.488 51.1119 91.488ZM51.1119 86.496C50.0879 86.496 49.3199 85.696 49.3199 84.672C49.3199 83.616 50.0879 82.848 51.1119 82.848C52.1679 82.848 52.9039 83.616 52.9039 84.672C52.9039 85.696 52.1679 86.496 51.1119 86.496ZM60.1811 88.16C61.1411 88.16 62.0051 87.776 62.6451 87.136L61.5571 86.016C61.0771 86.464 60.7571 86.624 60.1811 86.624C59.2851 86.624 58.5811 86.08 58.3571 85.28H63.7651V84.672C63.6371 82.496 62.2611 81.184 60.1811 81.184C58.2611 81.184 56.5971 82.752 56.5971 84.672C56.5971 86.752 58.1011 88.16 60.1811 88.16ZM58.3891 83.904C58.6451 83.168 59.2851 82.624 60.1811 82.624C61.1091 82.624 61.7491 83.136 62.0051 83.904H58.3891ZM71.4673 88H73.2593V83.008H74.1553V81.344H73.2593V76.352H71.4673V81.344H70.5713V83.008H71.4673V88ZM79.4336 88.16C81.3536 88.16 83.0176 86.592 83.0176 84.672C83.0176 82.592 81.5136 81.184 79.4336 81.184C77.5136 81.184 75.8496 82.752 75.8496 84.672C75.8496 86.752 77.3536 88.16 79.4336 88.16ZM79.4336 86.496C78.4096 86.496 77.6416 85.696 77.6416 84.672C77.6416 83.616 78.4096 82.848 79.4336 82.848C80.4896 82.848 81.2256 83.616 81.2256 84.672C81.2256 85.696 80.4896 86.496 79.4336 86.496ZM84.9153 91.328H86.7073V87.584C87.2833 88 87.9233 88.16 88.5953 88.16C90.4833 88.16 92.0833 86.592 92.0833 84.672C92.0833 82.592 90.5793 81.184 88.4993 81.184C86.5793 81.184 84.9153 82.752 84.9153 84.672V91.328ZM88.4993 86.496C87.4753 86.496 86.7073 85.696 86.7073 84.672C86.7073 83.616 87.4753 82.848 88.4993 82.848C89.5553 82.848 90.2913 83.616 90.2913 84.672C90.2913 85.696 89.5553 86.496 88.4993 86.496Z" fill="#333333"/>
<path d="M56.9019 29.5C58.0566 27.5 60.9434 27.5 62.0981 29.5L78.1195 57.25C79.2743 59.25 77.8309 61.75 75.5215 61.75H43.4785C41.1691 61.75 39.7258 59.25 40.8805 57.25L56.9019 29.5Z" fill="#333333"/>
</svg>
