<svg width="17" height="17" viewBox="0 0 17 17" fill="none" xmlns="http://www.w3.org/2000/svg">
<path fill-rule="evenodd" clip-rule="evenodd" d="M2.38814 0.933352C2.00237 0.933352 1.6324 1.0866 1.35962 1.35938C1.08684 1.63216 0.933594 2.00213 0.933594 2.3879V15.4788C0.933594 15.8646 1.08684 16.2345 1.35962 16.5073C1.6324 16.7801 2.00237 16.9334 2.38814 16.9334H15.479C15.8648 16.9334 16.2348 16.7801 16.5076 16.5073C16.7803 16.2345 16.9336 15.8646 16.9336 15.4788V10.3879C16.9336 10.195 16.857 10.01 16.7206 9.87364C16.5842 9.73725 16.3992 9.66062 16.2063 9.66062C16.0134 9.66062 15.8285 9.73725 15.6921 9.87364C15.5557 10.01 15.479 10.195 15.479 10.3879V15.4788H2.38814V2.3879H7.47905C7.67193 2.3879 7.85692 2.31127 7.99331 2.17488C8.1297 2.03849 8.20632 1.85351 8.20632 1.66062C8.20632 1.46774 8.1297 1.28276 7.99331 1.14637C7.85692 1.00998 7.67193 0.933352 7.47905 0.933352H2.38814ZM16.7212 1.14572C16.8565 1.2813 16.9328 1.46476 16.9336 1.65626V6.02426C16.9336 6.21715 16.857 6.40213 16.7206 6.53852C16.5842 6.67491 16.3992 6.75153 16.2063 6.75153C16.0134 6.75153 15.8285 6.67491 15.6921 6.53852C15.5557 6.40213 15.479 6.21715 15.479 6.02426V3.41626L7.99396 10.9028C7.92634 10.9704 7.84606 11.0241 7.75772 11.0607C7.66937 11.0973 7.57468 11.1161 7.47905 11.1161C7.38342 11.1161 7.28873 11.0973 7.20038 11.0607C7.11203 11.0241 7.03176 10.9704 6.96414 10.9028C6.89652 10.8352 6.84288 10.7549 6.80629 10.6666C6.76969 10.5782 6.75086 10.4835 6.75086 10.3879C6.75086 10.2923 6.76969 10.1976 6.80629 10.1092C6.84288 10.0209 6.89652 9.94061 6.96414 9.87299L14.4507 2.3879H11.8427C11.6498 2.3879 11.4648 2.31127 11.3284 2.17488C11.192 2.03849 11.1154 1.85351 11.1154 1.66062C11.1154 1.46774 11.192 1.28276 11.3284 1.14637C11.4648 1.00998 11.6498 0.933352 11.8427 0.933352H16.2063C16.3019 0.933102 16.3966 0.951733 16.485 0.988177C16.5733 1.02462 16.6536 1.07816 16.7212 1.14572Z" fill="white"/>
</svg>
