<svg width="15" height="15" viewBox="0 0 15 15" fill="none" xmlns="http://www.w3.org/2000/svg">
<path fill-rule="evenodd" clip-rule="evenodd" d="M2.06259 0.533343C1.72943 0.533343 1.40991 0.665692 1.17433 0.901275C0.938746 1.13686 0.806396 1.45638 0.806396 1.78954V13.0953C0.806396 13.4285 0.938746 13.748 1.17433 13.9836C1.40991 14.2192 1.72943 14.3515 2.06259 14.3515H13.3684C13.7015 14.3515 14.0211 14.2192 14.2566 13.9836C14.4922 13.748 14.6246 13.4285 14.6246 13.0953V8.69863C14.6246 8.53205 14.5584 8.37229 14.4406 8.2545C14.3228 8.13671 14.1631 8.07053 13.9965 8.07053C13.8299 8.07053 13.6701 8.13671 13.5523 8.2545C13.4346 8.37229 13.3684 8.53205 13.3684 8.69863V13.0953H2.06259V1.78954H6.45929C6.62587 1.78954 6.78563 1.72337 6.90342 1.60557C7.02121 1.48778 7.08739 1.32802 7.08739 1.16144C7.08739 0.99486 7.02121 0.8351 6.90342 0.717309C6.78563 0.599517 6.62587 0.533343 6.45929 0.533343H2.06259ZM14.4412 0.716747C14.558 0.833843 14.6239 0.992283 14.6246 1.15767V4.93004C14.6246 5.09662 14.5584 5.25638 14.4406 5.37417C14.3228 5.49196 14.1631 5.55814 13.9965 5.55814C13.8299 5.55814 13.6701 5.49196 13.5523 5.37417C13.4346 5.25638 13.3684 5.09662 13.3684 4.93004V2.67767L6.90398 9.14333C6.84559 9.20173 6.77626 9.24805 6.69996 9.27965C6.62366 9.31126 6.54188 9.32753 6.45929 9.32753C6.3767 9.32753 6.29492 9.31126 6.21862 9.27965C6.14232 9.24805 6.07299 9.20173 6.0146 9.14333C5.9562 9.08493 5.90987 9.0156 5.87827 8.9393C5.84666 8.863 5.8304 8.78122 5.8304 8.69863C5.8304 8.61604 5.84666 8.53427 5.87827 8.45797C5.90987 8.38166 5.9562 8.31234 6.0146 8.25394L12.4802 1.78954H10.2279C10.0613 1.78954 9.90154 1.72337 9.78375 1.60557C9.66596 1.48778 9.59978 1.32802 9.59978 1.16144C9.59978 0.99486 9.66596 0.8351 9.78375 0.717309C9.90154 0.599517 10.0613 0.533343 10.2279 0.533343H13.9965C14.079 0.533127 14.1608 0.549217 14.2371 0.580691C14.3134 0.612165 14.3828 0.658402 14.4412 0.716747Z" fill="#333333"/>
</svg>
